<?xml version="1.0" encoding="UTF-8"?>
<!DOCTYPE svg PUBLIC "-//W3C//DTD SVG 1.1//EN" "http://www.w3.org/Graphics/SVG/1.1/DTD/svg11.dtd">
<!-- Creator: CorelDRAW -->
<svg xmlns="http://www.w3.org/2000/svg" xml:space="preserve" width="1.16666in" height="0.304961in" version="1.1" style="shape-rendering:geometricPrecision; text-rendering:geometricPrecision; image-rendering:optimizeQuality; fill-rule:evenodd; clip-rule:evenodd"
viewBox="0 0 1166.66 304.96"
 xmlns:xlink="http://www.w3.org/1999/xlink"
 xmlns:xodm="http://www.corel.com/coreldraw/odm/2003">
 <defs>
  <style type="text/css">
   <![CDATA[
    .fil0 {fill:black;fill-rule:nonzero}
    .fil2 {fill:#333333;fill-rule:nonzero}
    .fil1 {fill:#FBBA00;fill-rule:nonzero}
   ]]>
  </style>
 </defs>
<symbol id="Fm8-25-0" viewBox="17045.26 -4882.85 2866.26 2589.21">
 <path class="fil0" d="M19389.31 -2751.78l-870.69 -1139.76 -0.28 -0.14 724.85 -607.3c177.65,-149.86 290.99,-238.49 340.99,-264.63 49.15,-25.98 116.53,-41.71 203.19,-48.15l0 -71.08 -965.98 0 0 71.08c105.97,3.93 172.65,12.36 199.46,26.68 52.35,28.08 78.61,65.87 78.61,114.75 0,64.61 -64.17,151.26 -191.94,259.41l-918.61 776.82 0 -805.47c0,-131.04 7.36,-212.5 22.36,-244.39 18.19,-41.71 43.06,-71.63 74.86,-89.89 43.61,-25.42 107.78,-37.79 191.24,-37.79l0 -71.06 -1232.09 0 0 71.06 82.1 0c69.17,0 124.02,12.37 165.14,37.07 40.56,24.74 68.06,53.53 81.11,86.68 13.74,33.28 19.86,116.02 19.86,248.32l0 1702.82c0,130.33 -6.12,210.53 -19.86,240.44 -16.96,43.68 -41.11,74.3 -73.07,91.86 -43.6,26.81 -101.52,40.44 -173.18,40.44l-82.1 0 0 70.36 1248.89 0 0 -70.36c-91.51,0 -157.63,-11.65 -199.43,-35.8 -41.11,-23.47 -69.17,-51.42 -83.47,-84.7 -15,-33.29 -22.36,-117.42 -22.36,-252.25l0 -706.47 91.53 -80.21 567.78 746.79c112.22,147.19 168.33,248.32 168.33,301.69 0,27.93 -11.96,51.41 -36.26,70.36 -23.59,18.96 -75.96,32.58 -157.62,40.44l0 70.37 1288.89 0 0 -70.37c-71.53,0 -139.58,-20.78 -204.44,-61.24 -88.47,-57.31 -194.31,-166.15 -317.78,-326.4z"/>
</symbol>
<symbol id="Fm5-22-0" viewBox="11924.44 -4063.59 781.52 891.43">
 <polygon class="fil0" points="12321.37,-4063.59 12705.95,-3172.16 11924.44,-3172.16 "/>
</symbol>
<symbol id="Fm6-23-0" viewBox="11177.16 -4936.21 2745.51 2642.57">
 <path class="fil0" d="M11857.98 -3030.71l912.92 0 137.3 322.61c35.76,84.12 53.86,131.87 57.22,143.4 7.17,24.29 11.79,47.6 11.79,70.36 0,38.35 -14.18,67.97 -42.36,87.91 -40.11,28.38 -111.22,42.42 -211.5,42.42l-51.47 0 0 70.36 1250.79 0 0 -70.36c-78.82,-6.61 -139.96,-29.35 -183.6,-69.11 -57.35,-52.11 -130.85,-178.36 -219.35,-379.9l-931.86 -2123.2 -36.47 0 -924.71 2065.75c-88.1,197.06 -161.59,327.37 -221.2,390.3 -59.46,62.93 -135.89,101.7 -228.33,116.02l0 70.37 859.64 0 0 -70.37c-134.64,-10.39 -218.94,-25.99 -253.17,-46.21 -58.19,-34.42 -87.8,-87.22 -87.8,-160.25 0,-54.78 17.25,-124.02 53.44,-207.88l108.71 -252.24z"/>
</symbol>
<symbol id="Fm7-24-0" viewBox="14189.17 -4882.84 2512.78 2648.33">
 <path class="fil0" d="M16250.42 -3277.07l-1199.32 -1605.63 0.29 -0.14 -862.22 0 0 71.07c74.03,2.53 130.97,14.32 170.14,35.81 39.86,22.19 85.14,67.14 136.53,135.54l51.94 69.1 0 1827.26c0,137.5 -26.39,234.69 -78.9,292 -52.64,57.31 -145.83,86.65 -279.71,87.92l0 70.37 862.22 0 0 -70.37 -57.5 0c-82.08,0 -155.42,-25.99 -219.17,-78.79 -64.17,-52.11 -96.11,-152.53 -96.11,-301.13l0 -1646.08 1643.61 2155.64 61.1 0 0 -2155.64c0,-121.9 9.87,-208.57 29.32,-258.71 19.44,-50.28 47.07,-86.65 82.64,-108.85 35.42,-22.2 103.87,-40.31 206.67,-54.07l0 -71.07 -802.78 0 0 71.07c135.28,-2.53 231.24,33.28 288.75,106.87 41.67,54.78 62.5,159.7 62.5,314.75l0 1113.07z"/>
</symbol>
<symbol id="Fm9-26-0" viewBox="8500.78 -8008.44 1911.97 2202.28">
 <path class="fil0" d="M10412.76 -7411.94l0 -596.5 -0.14 0 -1911.83 0 0 596.5 59.47 0c24.13,-162.36 81.49,-287.78 172.52,-375.29 64.79,-63.2 169.29,-94.24 312.35,-94.24l154.28 0 0 1698.33c0,110.81 -5.89,178.93 -17.67,204.49 -15.43,37.22 -36.89,63.35 -64.24,78.24 -37.44,22.75 -87.37,34.42 -148.96,34.42l-70.68 0 0 59.83 1114.47 0 0 -59.83 -70.69 0c-60.59,0 -108.28,-10.54 -143.61,-32.17 -34.79,-21.07 -58.35,-45.51 -70.69,-73.74 -11.78,-28.37 -17.67,-98.74 -17.67,-211.24l0 -1698.33 158.62 0c99.17,0 168.72,9.42 208.42,29.36 71.39,35.53 127.64,83.14 168.31,143.53 40.82,59.97 77.71,158.57 111.51,296.64l56.24 0z"/>
</symbol>
<symbol id="Fm0-12-0" viewBox="2408.06 -8003.38 5676.03 5732.64">
 <path class="fil0" d="M7249 -6050.41l-1965.97 -1952.97 -0.14 0.29 -2874.83 2855.64 2874.83 2876.71 1610.85 -1617.15 -9.26 -3.67c-183.08,-21.19 -388.64,-113.37 -607.83,-211.64 -184.12,-82.56 -377.89,-169.42 -576.07,-222.2 -224.2,-51 -538.03,-59.11 -780.93,-65.37 -183.35,-4.75 -326.29,-8.43 -359.76,-28.72 1202.44,-444.52 1600.74,-280.18 2011.88,-110.54 216.18,89.21 435.9,179.87 777.96,184.26l734.37 -737.24c-994.32,503.43 -1308.86,360.06 -1761.53,153.71 -363.82,-165.85 -816.86,-372.36 -1783.72,-316.47 1026.78,-477.51 1543.42,-302.85 2058.54,-128.69 399.42,135.03 797.91,269.75 1432.57,99.9l-441.52 -438.63 -4.5 0.14c-603.69,231.68 -877.97,104.82 -1244.37,-64.64 -365.51,-169.06 -822.71,-380.51 -1790.07,-320.75 1101.68,-506.03 1651.78,-293.43 2124.79,-110.63 193.14,74.65 373.43,144.33 573.18,158.1l1.54 0.56z"/>
</symbol>
<symbol id="Fm1-13-0" viewBox="8763.2 -5522.31 11408.74 136.93">
 <polygon class="fil0" points="20171.94,-5522.31 8763.2,-5522.31 8763.2,-5385.38 20171.94,-5385.38 "/>
</symbol>
<symbol id="Fm10-14-0" viewBox="10604.5 -8008.57 2190.81 2254.37">
 <path class="fil0" d="M11703.12 -8008.43l-1098.48 0 -0.14 0 0 60.4c90.04,-1.13 151.61,7.15 184.86,25.99 33.65,18.25 57.22,42.69 70.68,73.74 13.89,31.03 20.33,109.68 20.33,236.09l0 1078.1c0,183.57 28.33,328.65 84.58,437.36 56.8,108 153.86,196.76 290.47,266.01 100.69,50.99 243.33,76.54 427.07,76.54 220.76,0 395.53,-48.17 523.03,-144.67 127.49,-96.49 207.86,-201.82 241.1,-316.57 32.68,-114.75 49.22,-301.56 49.22,-560.4l0 -836.53c0,-89.74 6.87,-151.82 20.35,-186.8 17.67,-49.86 46.56,-86.94 86.25,-111.94 39.7,-24.86 89.49,-37.07 148.96,-37.07l43.9 0 0 -60.4 -736.21 0 0 60.4c86.25,0 152.74,12.07 199.86,37.07 30.01,16.01 55.26,45.37 75.04,87.5 19.78,42.14 30.02,112.65 30.02,211.24l0 898.04c0,234 -20.33,398.04 -60.6,492.29 -40.25,94.24 -100.69,167.97 -182.18,221.76 -80.79,53.79 -178.97,80.33 -294.12,80.33 -100.71,0 -183.74,-21.06 -249.65,-63.2 -65.78,-42.69 -113.06,-95.37 -141.94,-159.14 -28.89,-64.18 -43.33,-194.51 -43.33,-391.85l0 -1078.1c0,-125.29 7.02,-203.94 19.92,-235.54 12.9,-31.04 34.78,-56.04 65.92,-73.74 31.14,-17.7 87.94,-26.54 170.42,-26.54l54.69 0 0 -60.4z"/>
</symbol>
<symbol id="Fm11-15-0" viewBox="13704.72 -6809.96 0.14 0.14">
 <polygon class="fil0" points="13704.86,-6809.83 13704.86,-6809.96 13704.72,-6809.83 "/>
</symbol>
<symbol id="Fm12-16-0" viewBox="12910.3 -8008 2290.39 2202.13">
 <path class="fil0" d="M14291.11 -7116c-41.25,72.06 -98.06,122.06 -170.42,149.72 -72.35,27.67 -181.18,41.02 -326.35,41.02l-89.49 0 0 -964.49 167.75 0c168.72,0 290.86,39.89 366.56,120.24 76.11,80.33 114.17,203.93 114.17,371.91 0,115.87 -20.97,209.56 -62.22,281.61zm760.14 1194.8c-27.78,-23.87 -75.56,-83.7 -142.5,-180.19l-511.67 -745.51c129.72,-33.14 230.41,-83.57 302.78,-150.7 113.06,-106.32 169.86,-240.6 169.86,-402.96 0,-133 -38.06,-249.44 -113.04,-348.04 -75.43,-99.15 -173.07,-167.28 -292.09,-203.93 -119.44,-36.65 -307.36,-55.47 -565.18,-55.47l-989.1 0 0 60.39c97.48,0 163.96,8.85 199.31,27.67 35.9,18.26 60.59,42.69 75.04,73.74 13.89,31.04 20.9,105.76 20.9,225l0 1428.94c0,119.11 -7.01,193.4 -20.9,223.89 -14.44,30.47 -39.11,54.91 -73.92,73.74 -35.35,19.37 -101.82,28.79 -200.43,28.79l0 59.83 1089.79 0 0 -59.83c-97.47,0 -163.96,-9.56 -199.86,-27.82 -35.35,-18.25 -60.03,-43.25 -74.47,-74.3 -13.89,-30.47 -20.9,-105.33 -20.9,-224.44l0 -617.42 139.69 0 685.86 1003.94 670.28 0 0 -59.83c-56.81,-3.37 -105.97,-21.63 -149.44,-55.49z"/>
</symbol>
<symbol id="Fm13-17-0" viewBox="15297.79 -8040.06 2260.68 2284.32">
 <path class="fil0" d="M16915 -6291.14c-51.39,152.39 -123.19,263.35 -214.86,332.6 -72.36,53.79 -162.36,80.89 -270.14,80.89 -160.28,0 -285.14,-62.64 -374.03,-188.48 -127.5,-179.63 -191.25,-457.31 -191.25,-833.15 0,-316.01 41.39,-558.71 123.75,-727.25 101.81,-205.61 249.74,-308.71 444.86,-308.71l0 0.14c105.41,0 198.61,29.92 279.58,89.18 81.53,59.83 148.06,161.8 200.42,306.47 52.64,144.1 78.9,361.94 78.9,653.51 0,244.53 -25.71,442.99 -77.24,594.81zm325.69 -1441.17c-212.22,-217.42 -487.64,-319.94 -826.8,-306.6l0 0.14c-314.02,-13.35 -578.06,89.18 -793.61,307.58 -214.85,217.85 -322.49,490.46 -322.49,817.57 0,291.02 83.04,542.56 248.04,754.92 209.58,268.83 505.83,402.96 888.47,402.96 381.94,0 677.65,-140.74 887.24,-422.33 158.04,-212.36 236.93,-457.88 236.93,-737.22 0,-326.97 -106.11,-599.17 -317.78,-817.01z"/>
</symbol>
<symbol id="Fm14-18-0" viewBox="17718.88 -8008.44 2200.43 2252.97">
 <path class="fil0" d="M19523.88 -6642.55l-1050.13 -1365.89 0.13 0.29 -755 0 0 60.39c64.72,2.25 114.72,12.22 148.9,30.47 34.99,18.82 74.43,57.17 119.57,115.32l45.56 58.71 0 1554.22c0,117 -23.06,199.58 -69.17,248.32 -46.1,48.74 -127.5,73.74 -244.86,74.86l0 59.83 755 0 0 -59.83 -50.4 0c-71.81,0 -136.11,-22.19 -191.82,-67.14 -56.25,-44.24 -84.17,-129.64 -84.17,-256.04l0 -1400.15 1439.18 1833.72 53.6 0 0 -1833.72c0,-103.65 8.47,-177.39 25.57,-220.08 17.36,-42.69 41.24,-73.74 72.49,-92.56 30.97,-18.96 90.97,-34.42 180.98,-46.07l0 -60.4 -702.93 0 0 60.4c118.33,-2.25 202.5,28.22 252.92,90.88 36.39,46.48 54.58,135.8 54.58,267.69l0 946.78z"/>
</symbol>
<symbol id="Fm2-19-0" viewBox="9667.72 -3568.99 754.86 1133.91">
 <path class="fil0" d="M9669.69 -2738.73l0 -830.18c193.97,-1.42 340.39,16.83 438.02,55.32 98.18,38.48 175.04,105.61 231,201.4 55.82,95.79 83.87,204.64 83.87,325.85 0,105.5 -22.85,201.26 -69,286.68 -45.58,85.93 -111.22,151.81 -197.21,196.75 -85.83,45.67 -179.53,67.83 -281.07,67.83 -69.01,0 -120.35,-17.54 -155.54,-52.09 -35.07,-35.25 -52.04,-87.36 -52.04,-155.76l1.97 -95.79z"/>
</symbol>
<symbol id="Fm3-20-0" viewBox="9669.54 -4737.7 665.1 1019.47">
 <path class="fil0" d="M10068.58 -3778.89c-85.85,40.44 -218.67,60.67 -398.89,60.67l-0.15 -0.28 0 -1019.11c185.43,-1.4 320.07,16.86 404.08,55.33 84.02,38.48 148.39,93.82 193.28,166.86 45.01,73.74 67.74,167.56 67.74,281.59 0,114.75 -22.72,209.28 -68.31,282.88 -46.14,73.74 -111.92,131.04 -197.75,172.06z"/>
</symbol>
<symbol id="Fm4-21-0" viewBox="8708.52 -4882.84 2385.06 2589.07">
 <path class="fil0" d="M10880.1 -3458.26c-98.88,-81.46 -271.39,-151.13 -516.71,-207.86l0.15 -0.14c227.62,-57.44 386.54,-134.97 476.3,-232.03 90.46,-97.61 135.35,-208.43 135.35,-333.57 0,-117.98 -35.2,-230.06 -106.74,-334.97 -70.97,-104.92 -168.03,-183.71 -291.59,-236.53 -123,-52.81 -333.25,-79.48 -629.32,-79.48l-1239.03 0 0 71.07c118.51,0 199.17,10.39 242.08,32.58 42.92,21.49 73.48,50.14 90.46,86.65 17.68,36.52 26.1,124.44 26.1,264.61l0 1679.93c0,140.17 -8.56,227.53 -26.1,263.35 -16.97,35.81 -46.85,64.46 -89.19,86.65 -42.93,22.75 -123.57,33.85 -243.35,33.85l0 70.37 1313.91 0c365.79,0 644.91,-76.83 836.92,-231.32 156.1,-127.11 234.22,-288.07 234.22,-482.87 0,-184.42 -70.97,-334.28 -213.47,-450.29z"/>
</symbol>
 <g id="Слой_x0020_1">
  <metadata id="CorelCorpID_0Corel-Layer"/>
  <g id="_2220166790704">
   <path class="fil1" d="M-0 2.48l0 300 220.21 0 0 -35.46 -184.75 0 0 -45.04c14.89,10.99 32.98,16.67 51.42,16.67l67.73 0 0 -103.9 -68.44 0 0 35.46 32.98 0 0 33.33 -32.27 0c-28.37,0.35 -51.42,-22.34 -51.42,-50.71 -0.36,-28.37 22.34,-51.42 50.71,-51.42l0.71 0 31.91 0 0 -35.46 -31.91 0c-18.44,0 -36.52,6.03 -51.42,16.67l0 -45.04 230.49 0 0 97.16 -45.74 0 0 -68.8 -68.44 0 0 35.46 32.98 0 0 137.59 35.46 0 0 -68.8 45.39 0 0 132.27 35.46 0 0 -300 -301.06 0z"/>
   <path class="fil2" d="M450.71 26.24l45.39 0 0 -23.76 -47.52 0c-38.3,0 -60.99,24.47 -60.99,57.09 0,32.63 22.69,57.09 60.99,57.09l47.52 0 0 -67.73 -50 0 0 21.63 22.34 0 0 22.34 -17.73 0c-19.86,0 -34.4,-11.35 -34.4,-33.33 0,-21.98 14.54,-33.33 34.4,-33.33zm715.96 90.43l-6.39 0 -74.11 -63.12 0 63.12 -27.66 0 0 -114.19 6.38 0 74.11 60.64 0 -60.28 27.66 0 0 113.83zm-151.06 -46.1l-50.35 0 0 22.34 63.12 0 0 23.76 -91.13 0 0 -114.19 91.13 0 0 23.76 -63.48 0 0 22.34 50.35 0 0 21.98 0.36 0zm-186.53 -44.32l0 66.67 17.73 0c19.86,0 34.4,-11.35 34.4,-33.33 0,-21.98 -14.19,-33.33 -34.4,-33.33l-17.73 0zm19.86 90.43l-47.52 0 0 -114.19 47.52 0c38.3,0 60.99,24.47 60.99,57.09 0,32.63 -22.69,57.09 -60.99,57.09zm-174.47 0l0 -114.19 27.66 0 0 90.43 62.06 0 0 23.76 -89.72 0zm-56.74 -57.09c0.35,-18.08 -14.19,-32.98 -32.27,-32.98 -18.09,-0.35 -32.98,14.19 -32.98,32.27l0 0.71c-0.35,18.09 14.19,32.98 32.27,32.98 18.09,0.35 32.98,-14.19 32.98,-32.27l0 -0.71zm-94.33 0c0,-32.62 23.05,-59.57 61.35,-59.57 38.3,0 61.7,26.95 61.7,59.57 0,32.63 -23.05,59.57 -61.7,59.57 -38.3,0 -61.35,-26.59 -61.35,-59.57zm492.2 196.46l-50.35 0 0 22.34 63.12 0 0 23.76 -91.13 0 0 -114.19 91.13 0 0 23.76 -63.48 0 0 22.34 50.35 0 0.36 21.99zm-189.01 12.41c0,0 16.67,10.99 33.33,10.99 10.64,0 14.18,-4.25 14.18,-9.57 0,-6.03 -3.9,-8.86 -21.28,-13.83 -25.18,-7.09 -39.72,-16.31 -39.72,-35.11 0,-20.93 14.89,-35.46 46.1,-35.46 32.27,0 44.68,12.06 44.68,12.06l-14.89 22.34c-8.87,-6.03 -19.15,-9.57 -29.79,-9.57 -10.99,0 -14.19,3.54 -14.19,8.51 0,5.67 5.32,8.16 19.86,11.7 26.95,7.09 41.85,17.02 41.85,36.17 0,20.92 -14.54,37.94 -46.1,37.94 -32.63,0 -49.29,-15.25 -49.29,-15.25l15.25 -20.92zm-152.13 -15.25l0 -65.25 27.66 0 0 64.89c0,13.12 8.15,25.18 25.18,25.18 17.37,0 24.82,-11.7 24.82,-25.18l0 -64.89 27.66 0 0 64.89c0,29.43 -19.86,51.77 -52.48,51.77 -32.27,0.35 -52.84,-21.98 -52.84,-51.42zm-56.74 -7.8c0.35,-18.09 -14.19,-32.98 -32.27,-32.98 -18.09,-0.35 -32.98,14.19 -32.98,32.27l0 0.71c-0.35,18.08 14.19,32.98 32.27,32.98 18.09,0.35 32.98,-14.19 32.98,-32.27l0 -0.71zm-94.33 0c0,-32.63 23.05,-59.57 61.35,-59.57 38.3,0 61.7,26.95 61.7,59.57 0,32.62 -23.41,59.57 -61.7,59.57 -38.3,0 -61.35,-26.95 -61.35,-59.57zm-27.3 57.09l-27.66 0 0 -44.68 -50.71 0 0 44.68 -27.66 0 0 -114.54 27.66 0 0 47.87 50.71 0 0 -47.87 27.66 0 0 114.54z"/>
  </g>
 </g>
</svg>
