<?xml version="1.0" encoding="UTF-8"?> <svg xmlns="http://www.w3.org/2000/svg" width="184" height="38" viewBox="0 0 184 38" fill="none"><path d="M29.3001 33.2616L20.3992 12.7818L25.204 6.55904C26.3856 5.06244 27.0157 4.74735 28.3548 4.74735C29.0637 4.74735 30.324 4.74735 31.4268 4.74735V4.27473H23.2348V4.74735C24.889 4.74735 25.4404 4.74735 25.4404 5.21996C25.4404 5.61381 25.0465 6.08642 24.7314 6.48027L12.2072 22.4703V8.13441C12.2072 5.85012 13.4675 4.74735 16.0669 4.74735V4.27473H0.707031V4.74735C3.22763 4.74735 4.56671 5.85012 4.56671 8.13441V31.8437C4.64548 34.5219 6.37833 35.7822 7.9537 36.4911C8.97769 36.9637 10.1593 37.1212 11.262 37.1212H16.1457V36.6486C13.5463 36.6486 12.286 35.5459 12.286 33.2616V23.258L15.2005 19.5559L20.8718 33.4979C21.8958 35.8609 23.0773 37.0425 24.2589 37.0425H33.396V36.5699C32.372 36.5699 31.5843 36.4123 31.1117 36.0973C30.6391 35.7034 30.0877 34.7582 29.3001 33.2616ZM46.3141 11.4427C42.0606 11.4427 38.7523 12.5454 36.3892 14.751C34.0262 17.0353 32.8447 20.186 32.8447 24.2032C32.8447 28.2992 34.0261 31.4499 36.3104 33.6554C38.6734 35.8609 41.9818 36.9637 46.3141 36.9637C50.6463 36.9637 53.9546 35.8609 56.3176 33.6554C58.6019 31.4499 59.7835 28.2992 59.7835 24.2032C59.7835 20.186 58.6019 17.0353 56.3176 14.751C53.8758 12.5454 50.5676 11.4427 46.3141 11.4427ZM51.0402 33.9705C50.3313 35.7034 48.7559 36.5699 46.3141 36.5699C43.5572 36.5699 41.903 35.4671 41.2728 33.3404C40.8002 31.6074 40.5639 28.6142 40.5639 24.2032C40.5639 19.8709 40.8002 16.7989 41.2728 15.066C41.903 12.9393 43.5572 11.9153 46.3141 11.9153C48.7559 11.9153 50.3313 12.7818 51.0402 14.4359C51.7491 16.1688 52.0641 19.3983 52.0641 24.2032C52.0641 29.0081 51.7491 32.2376 51.0402 33.9705ZM150.21 36.5699C148.319 36.5699 147.295 34.9157 147.295 31.6074V19.4771C147.295 14.5147 141.939 12.2304 141.939 12.2304H147.295H153.991V11.7577H147.295V0.100006H142.49C142.49 4.58982 140.915 11.7577 137.843 11.7577H135.716V12.2304C138.237 12.2304 139.576 13.3331 139.576 15.6174V25.0697C139.576 33.104 143.121 37.1212 150.131 37.1212C152.337 37.1212 153.833 36.176 154.7 34.3643L154.227 34.128C153.597 35.7034 152.258 36.5699 150.21 36.5699ZM168.563 11.679C165.806 11.679 162.576 12.3879 160.056 13.8057L160.371 14.1996C162.813 12.7817 165.963 12.1516 168.642 12.1516C172.816 12.1516 175.495 14.6722 175.495 19.6346V20.8161C173.604 20.0284 171.714 19.6346 169.744 19.6346C165.648 19.6346 162.34 20.5011 159.977 22.234C157.535 23.9669 156.984 26.0149 156.984 28.2991C156.984 30.5834 157.614 32.6314 160.056 34.4431C162.498 36.2548 165.727 37.2 169.823 37.2C172.186 37.2 174.155 36.6486 175.81 35.3883C175.888 35.3883 176.518 36.2548 177.542 36.9637C177.542 36.9637 183.214 34.2068 183.293 29.3232V24.4395C183.056 15.9325 177.858 11.679 168.563 11.679ZM169.587 36.8062C167.539 36.8062 166.042 36.176 165.097 34.9945C164.309 33.9705 163.837 31.765 163.837 28.2991C163.837 25.5422 164.073 23.6518 164.624 22.7853C165.57 20.9737 167.224 20.1072 169.587 20.1072C171.635 20.1072 173.525 20.5011 175.337 21.3675V29.1656C175.337 30.9773 175.337 32.9465 175.416 34.9157C173.998 36.176 172.029 36.8062 169.587 36.8062ZM119.884 3.72337C115.63 3.72337 112.243 5.29874 109.486 8.52825C106.808 11.7578 105.469 15.6962 105.469 20.3435C105.469 24.9909 106.808 28.9293 109.565 32.1588C112.322 35.3883 115.709 37.0425 119.884 37.0425C124.059 37.0425 127.446 35.4671 130.203 32.1588C132.959 28.9293 134.299 24.9909 134.299 20.3435C134.299 15.6962 132.959 11.7578 130.203 8.52825C127.524 5.29874 124.059 3.72337 119.884 3.72337ZM125.004 33.2616C123.901 35.4671 122.247 36.5699 119.884 36.5699C117.6 36.5699 115.867 35.4671 114.764 33.2616C113.661 31.0561 113.11 26.7238 113.11 20.3435C113.11 13.9633 113.661 9.70976 114.764 7.42547C115.867 5.21995 117.521 4.11721 119.884 4.11721C122.168 4.11721 123.901 5.21995 125.004 7.42547C126.107 9.63099 126.658 13.9633 126.658 20.3435C126.658 26.7238 126.107 31.0561 125.004 33.2616ZM87.2737 33.104V20.5798C87.2737 14.5934 83.0989 11.679 74.8282 11.679C73.2529 11.679 71.5987 12.2304 70.0234 13.2544V4.19598C70.0234 1.59662 69.3932 0.336302 68.1329 0.336302H58.5232V0.808919C61.1225 0.808919 62.3829 1.91169 62.3829 4.19598V29.4807C62.4616 30.8985 62.9342 32.2376 63.7219 33.2616C65.4548 35.7034 68.3692 37.0425 71.3624 37.0425H73.8831V36.5699C71.3625 36.5699 70.0234 35.4671 70.0234 33.1828V13.8845C71.5987 12.703 73.1741 12.1516 74.8282 12.1516C78.0578 12.1516 79.6331 15.1448 79.6331 21.0525V29.4807C79.7119 30.8985 80.2633 32.1588 80.9722 33.1828C82.7051 35.6246 85.6195 36.9637 88.6127 36.9637H91.2121V36.4911C88.534 36.4911 87.2737 35.3883 87.2737 33.104Z" fill="#958048"></path></svg> 