<svg width="880" height="282" viewBox="0 0 880 282" fill="none" xmlns="http://www.w3.org/2000/svg">
<path fill-rule="evenodd" clip-rule="evenodd" d="M737.789 183.82V160.33C737.789 160.33 757.409 165.14 757.409 146.38C757.409 127.63 757.409 85.72 757.409 85.72H829.609V183.73H803.448V108.69H783.828V146.38C783.828 146.38 789.069 195.18 737.789 183.82Z" fill="#373435"/>
<path fill-rule="evenodd" clip-rule="evenodd" d="M659.799 64.0299L675.119 58.0099C675.119 58.0099 675.639 66.1799 686.309 66.1799C696.979 66.1799 697.749 58.0099 697.749 58.0099L713.249 64.0299C713.249 64.0299 709.199 80.13 686.309 80.13C663.419 80.13 659.799 64.0299 659.799 64.0299ZM642.079 183.56H668.409L704.559 124.79V183.56H729.939V85.5399H703.429L667.459 144.84V85.5399H642.159L642.079 183.56Z" fill="#373435"/>
<path fill-rule="evenodd" clip-rule="evenodd" d="M449.049 183.56V85.5399H475.379V126.94L502.669 85.5399H533.899L498.789 132.87L535.969 183.56H502.749L475.379 141.82V183.56H449.049Z" fill="#373435"/>
<path fill-rule="evenodd" clip-rule="evenodd" d="M371.859 183.56L385.549 156.19L350.688 85.5399H381.839L399.139 126.77L413.859 85.5399H443.029L400.169 183.56H371.859Z" fill="#373435"/>
<path fill-rule="evenodd" clip-rule="evenodd" d="M252.589 183.65V160.15C252.589 160.15 272.209 164.97 272.209 146.21C272.209 127.45 272.209 85.5399 272.209 85.5399H344.409V183.56H318.249V108.52H298.629V146.21C298.629 146.21 303.869 195.01 252.589 183.65Z" fill="#373435"/>
<path fill-rule="evenodd" clip-rule="evenodd" d="M598.269 85.5399C581.319 67.7299 579.859 57.3199 579.859 57.3199C579.859 57.3199 577.729 69.7099 562.419 85.5399C547.099 101.38 524.899 120.31 524.899 139.4C524.899 158.5 539.189 190.7 579.859 190.7C620.529 190.7 634.869 158 634.869 139.4C634.869 120.8 615.229 103.36 598.269 85.5399ZM555.499 108.95C555.029 110.16 551.289 119.54 550.599 126.59C549.909 133.65 550.169 144.32 550.169 145.95C550.169 147.59 549.909 148.62 548.189 147.5C546.469 146.38 539.239 141.22 540.959 129.52C542.679 117.82 550.729 110.89 554.689 107.45C554.689 107.45 555.329 106.84 555.719 107.06C556.109 107.27 555.979 107.75 555.499 108.95Z" fill="#373435"/>
<path fill-rule="evenodd" clip-rule="evenodd" d="M50.1787 50.6899V230.63H232.109V50.6899H50.1787ZM107.069 80.2999C107.069 80.2999 107.579 70.23 117.479 70.23C127.379 70.23 127.809 80.2999 127.809 80.2999V150.52C127.809 150.52 127.929 156.88 134.949 156.88C141.969 156.88 141.579 150.52 141.579 150.52V80.2999C141.579 80.2999 142.519 70.23 152.159 70.23C161.799 70.23 162.569 80.2999 162.569 80.2999V150.52C162.569 150.52 162.229 176.33 134.949 177.71C107.579 176.93 106.979 150.52 106.979 150.52L107.069 80.2999ZM93.1287 204.82C93.1287 204.82 72.1287 204.82 72.1287 184.25C72.1287 163.68 72.1287 80.2999 72.1287 80.2999C72.1287 80.2999 72.1287 70.23 82.6287 70.23C93.1287 70.23 93.0387 80.2999 93.0387 80.2999V177.71C93.0387 177.71 92.2687 184.25 100.269 184.25C108.269 184.25 193.809 184.25 193.809 184.25L171.259 129.17C171.259 129.17 167.649 119.62 171.259 113.08C174.879 106.54 190.199 80.2999 190.199 80.2999C190.199 80.2999 194.409 70.23 202.329 70.23C210.249 70.23 214.809 78.7499 211.539 84.6799C208.269 90.6199 193.469 116.01 193.469 116.01C193.469 116.01 189.679 121.26 193.469 128.4C199.659 143.2 224.789 204.82 224.789 204.82H93.1287Z" fill="#ED3237"/>
<path fill-rule="evenodd" clip-rule="evenodd" d="M255.938 209.21H274.239V194.71H278.198V230.4H274.239V212.96H255.938V230.4H251.979V194.71H255.938V209.21Z" fill="#373435"/>
<path fill-rule="evenodd" clip-rule="evenodd" d="M308.059 198.46H293.499V209.05H307.629V212.79H293.499V226.65H308.059V230.4H289.549V194.71H308.059V198.46Z" fill="#373435"/>
<path fill-rule="evenodd" clip-rule="evenodd" d="M332.879 225.37H331.919C318.649 225.37 315.539 217.24 315.539 211.46C315.539 205.68 318.649 197.55 331.919 197.55H332.879V193.27H336.839V197.55H337.799C351.069 197.55 354.169 205.68 354.169 211.46C354.169 217.24 351.069 225.37 337.799 225.37H336.839V230.4H332.879V225.37ZM332.879 201.29H331.808C322.068 201.29 319.609 206.91 319.609 211.46C319.609 216 322.068 221.62 331.808 221.62H332.879V201.29ZM336.839 221.62H337.909C347.639 221.62 350.099 216 350.099 211.46C350.099 206.91 347.639 201.29 337.909 201.29H336.839V221.62Z" fill="#373435"/>
<path fill-rule="evenodd" clip-rule="evenodd" d="M372.369 198.46V230.4H368.409V198.46H359.739V194.71H381.029V198.46H372.369Z" fill="#373435"/>
<path fill-rule="evenodd" clip-rule="evenodd" d="M396.009 214.56C394.409 214.4 391.949 213.87 390.019 212.31C387.449 210.23 386.919 207.45 386.919 205.04C386.919 201.83 387.939 199.53 389.379 197.92C392.159 194.82 396.119 194.71 398.259 194.71H406.609V230.4H402.649V214.77H400.509L390.349 230.4H385.529L396.009 214.56ZM398.799 198.46C396.919 198.46 394.409 198.57 392.699 200.33C391.739 201.35 390.989 202.95 390.989 204.93C390.989 207.34 391.899 208.84 393.019 209.75C394.519 210.92 396.759 211.24 398.479 211.24H402.649V198.46H398.799Z" fill="#373435"/>
<path fill-rule="evenodd" clip-rule="evenodd" d="M421.909 209.21H440.209V194.71H444.159V230.4H440.209V212.96H421.909V230.4H417.949V194.71H421.909V209.21Z" fill="#373435"/>
<path fill-rule="evenodd" clip-rule="evenodd" d="M475.199 220.34H460.009L455.729 230.4H451.339L467.759 193L483.759 230.4H479.379L475.199 220.34ZM473.649 216.59L467.659 202.31L461.559 216.59H473.649Z" fill="#373435"/>
<path fill-rule="evenodd" clip-rule="evenodd" d="M498.428 214.56C496.818 214.4 494.358 213.87 492.438 212.31C489.868 210.23 489.328 207.45 489.328 205.04C489.328 201.83 490.349 199.53 491.789 197.92C494.569 194.82 498.539 194.71 500.669 194.71H509.019V230.4H505.058V214.77H502.919L492.759 230.4H487.938L498.428 214.56ZM501.208 198.46C499.338 198.46 496.819 198.57 495.109 200.33C494.149 201.35 493.399 202.95 493.399 204.93C493.399 207.34 494.308 208.84 495.428 209.75C496.928 210.92 499.179 211.24 500.889 211.24H505.058V198.46H501.208Z" fill="#373435"/>
<path fill-rule="evenodd" clip-rule="evenodd" d="M538.919 210.01L554.119 194.71H559.469L542.779 211.35L559.999 230.4H554.549L539.938 214.03L538.919 215.04V230.4H534.958V194.71H538.919V210.01Z" fill="#373435"/>
<path fill-rule="evenodd" clip-rule="evenodd" d="M565.569 212.58C565.569 201.94 573.869 194.12 584.139 194.12C594.409 194.12 602.699 201.94 602.699 212.58C602.699 223.17 594.469 231.04 584.139 231.04C573.809 231.04 565.569 223.17 565.569 212.58ZM569.639 212.58C569.639 220.77 576.109 227.29 584.139 227.29C592.169 227.29 598.639 220.77 598.639 212.58C598.639 204.4 592.169 197.87 584.139 197.87C576.109 197.87 569.639 204.4 569.639 212.58Z" fill="#373435"/>
<path fill-rule="evenodd" clip-rule="evenodd" d="M610.889 230.4L616.819 192.73L630.519 222.85L644.479 192.68L650.049 230.4H645.979L642.609 205.57L630.469 231.89L618.479 205.57L614.949 230.4H610.889Z" fill="#373435"/>
<path fill-rule="evenodd" clip-rule="evenodd" d="M686.639 194.71V230.4H682.689V198.46H664.389V230.4H660.429V194.71H686.639Z" fill="#373435"/>
<path fill-rule="evenodd" clip-rule="evenodd" d="M717.679 220.34H702.489L698.209 230.4H693.829L710.249 193L726.239 230.4H721.859L717.679 220.34ZM716.129 216.59L710.139 202.31L704.039 216.59H716.129Z" fill="#373435"/>
<path fill-rule="evenodd" clip-rule="evenodd" d="M737.379 209.21H755.669V194.71H759.639V230.4H755.669V212.96H737.379V230.4H733.419V194.71H737.379V209.21Z" fill="#373435"/>
<path fill-rule="evenodd" clip-rule="evenodd" d="M795.809 203.17L770.989 232V194.71H774.939V222.05L799.759 193.21V230.4H795.809V203.17Z" fill="#373435"/>
<path fill-rule="evenodd" clip-rule="evenodd" d="M818.599 214.56C816.989 214.4 814.529 213.87 812.609 212.31C810.039 210.23 809.509 207.45 809.509 205.04C809.509 201.83 810.519 199.53 811.969 197.92C814.749 194.82 818.709 194.71 820.849 194.71H829.189V230.4H825.229V214.77H823.089L812.929 230.4H808.109L818.599 214.56ZM821.379 198.46C819.509 198.46 816.989 198.57 815.279 200.33C814.319 201.35 813.569 202.95 813.569 204.93C813.569 207.34 814.479 208.84 815.599 209.75C817.099 210.92 819.349 211.24 821.059 211.24H825.229V198.46H821.379Z" fill="#373435"/>
</svg>
