<?xml version="1.0" encoding="UTF-8"?>
<!DOCTYPE svg PUBLIC "-//W3C//DTD SVG 1.1//EN" "http://www.w3.org/Graphics/SVG/1.1/DTD/svg11.dtd">
<!-- Creator: CorelDRAW -->
<svg xmlns="http://www.w3.org/2000/svg" xml:space="preserve" width="254px" height="70px" version="1.1" style="shape-rendering:geometricPrecision; text-rendering:geometricPrecision; image-rendering:optimizeQuality; fill-rule:evenodd; clip-rule:evenodd"
viewBox="0 0 254 70.04"
 xmlns:xlink="http://www.w3.org/1999/xlink"
 xmlns:xodm="http://www.corel.com/coreldraw/odm/2003">
 <defs>
  <style type="text/css">
   <![CDATA[
    .fil2 {fill:#373435}
    .fil1 {fill:#D74D5A}
    .fil0 {fill:black;fill-rule:nonzero}
   ]]>
  </style>
 </defs>
<symbol id="Fm3-20-0" viewBox="2854.48 -1432.9 199.65 306.02">
 <path class="fil0" d="M2974.26 -1145.09c-25.77,12.14 -65.64,18.21 -119.74,18.21l-0.04 -0.08 0 -305.92c55.66,-0.42 96.08,5.06 121.29,16.61 25.22,11.55 44.55,28.16 58.02,50.09 13.51,22.13 20.34,50.3 20.34,84.53 0,34.44 -6.83,62.82 -20.51,84.91 -13.85,22.14 -33.59,39.34 -59.36,51.65z"/>
</symbol>
<symbol id="Fm6-23-0" viewBox="3307.03 -1492.49 824.14 793.24">
 <path class="fil0" d="M3511.4 -920.5l274.04 0 41.21 96.84c10.74,25.25 16.17,39.58 17.18,43.04 2.15,7.3 3.54,14.29 3.54,21.13 0,11.51 -4.26,20.4 -12.72,26.39 -12.04,8.51 -33.39,12.73 -63.49,12.73l-15.45 0 0 21.12 375.46 0 0 -21.12c-23.66,-1.99 -42.01,-8.81 -55.11,-20.75 -17.21,-15.64 -39.28,-53.54 -65.84,-114.04l-279.73 -637.33 -10.94 0 -277.58 620.09c-26.45,59.15 -48.51,98.27 -66.4,117.16 -17.85,18.89 -40.79,30.53 -68.54,34.83l0 21.12 258.05 0 0 -21.12c-40.42,-3.12 -65.73,-7.8 -76,-13.87 -17.47,-10.34 -26.36,-26.19 -26.36,-48.11 0,-16.44 5.18,-37.22 16.05,-62.4l32.63 -75.71z"/>
</symbol>
<symbol id="Fm8-25-0" viewBox="5068.51 -1476.47 860.39 777.22">
 <path class="fil0" d="M5772.14 -836.77l-261.37 -342.14 -0.08 -0.04 217.58 -182.3c53.33,-44.98 87.35,-71.59 102.36,-79.43 14.75,-7.8 34.98,-12.52 60.99,-14.46l0 -21.33 -289.96 0 0 21.33c31.81,1.18 51.82,3.71 59.87,8.01 15.71,8.43 23.6,19.78 23.6,34.45 0,19.39 -19.27,45.4 -57.62,77.87l-275.75 233.18 0 -241.78c0,-39.34 2.21,-63.79 6.71,-73.36 5.47,-12.52 12.93,-21.5 22.48,-26.98 13.09,-7.63 32.35,-11.35 57.4,-11.35l0 -21.33 -369.84 0 0 21.33 24.64 0c20.76,0 37.23,3.72 49.57,11.13 12.18,7.42 20.43,16.07 24.35,26.02 4.12,9.99 5.96,34.82 5.96,74.54l0 511.15c0,39.12 -1.84,63.19 -5.96,72.17 -5.09,13.11 -12.34,22.31 -21.93,27.58 -13.09,8.04 -30.48,12.14 -51.99,12.14l-24.64 0 0 21.12 374.88 0 0 -21.12c-27.47,0 -47.31,-3.5 -59.86,-10.75 -12.34,-7.05 -20.76,-15.43 -25.06,-25.42 -4.5,-10 -6.71,-35.25 -6.71,-75.72l0 -212.07 27.48 -24.08 170.43 224.17c33.69,44.19 50.53,74.54 50.53,90.56 0,8.39 -3.59,15.44 -10.89,21.13 -7.08,5.69 -22.8,9.78 -47.31,12.14l0 21.12 386.89 0 0 -21.12c-21.47,0 -41.9,-6.24 -61.36,-18.39 -26.56,-17.2 -58.33,-49.87 -95.39,-97.97z"/>
</symbol>
<symbol id="Fm4-21-0" viewBox="2566 -1476.47 715.94 777.18">
 <path class="fil0" d="M3217.86 -1048.84c-29.68,-24.45 -81.46,-45.37 -155.1,-62.4l0.04 -0.04c68.33,-17.24 116.03,-40.51 142.98,-69.65 27.15,-29.3 40.63,-62.57 40.63,-100.13 0,-35.42 -10.57,-69.06 -32.04,-100.55 -21.31,-31.49 -50.44,-55.15 -87.53,-71 -36.93,-15.85 -100.04,-23.86 -188.91,-23.86l-371.93 0 0 21.33c35.57,0 59.78,3.12 72.67,9.78 12.88,6.45 22.06,15.05 27.15,26.01 5.31,10.97 7.83,37.36 7.83,79.43l0 504.28c0,42.08 -2.56,68.3 -7.83,79.05 -5.09,10.75 -14.06,19.35 -26.77,26.02 -12.89,6.82 -37.1,10.16 -73.05,10.16l0 21.12 394.41 0c109.8,0 193.58,-23.06 251.22,-69.44 46.86,-38.15 70.31,-86.47 70.31,-144.94 0,-55.36 -21.3,-100.35 -64.08,-135.17z"/>
</symbol>
<symbol id="Fm7-24-0" viewBox="4211.17 -1476.47 754.28 794.97">
 <path class="fil0" d="M4829.91 -994.46l-360.01 -481.97 0.09 -0.04 -258.82 0 0 21.33c22.22,0.76 39.31,4.3 51.07,10.75 11.97,6.66 25.56,20.15 40.98,40.69l15.6 20.74 0 548.5c0,41.28 -7.92,70.45 -23.69,87.65 -15.8,17.21 -43.77,26.02 -83.96,26.4l0 21.12 258.82 0 0 -21.12 -17.26 0c-24.64,0 -46.65,-7.81 -65.79,-23.66 -19.26,-15.64 -28.85,-45.78 -28.85,-90.39l0 -494.11 493.38 647.07 18.34 0 0 -647.07c0,-36.6 2.96,-62.61 8.8,-77.66 5.83,-15.1 14.13,-26.01 24.8,-32.68 10.63,-6.66 31.18,-12.1 62.04,-16.23l0 -21.33 -240.98 0 0 21.33c40.61,-0.76 69.42,9.99 86.68,32.08 12.51,16.45 18.76,47.94 18.76,94.49l0 334.11z"/>
</symbol>
<symbol id="Fm5-22-0" viewBox="3531.35 -1230.55 234.59 267.59">
 <polygon class="fil0" points="3650.5,-1230.55 3765.94,-962.96 3531.35,-962.96 "/>
</symbol>
<symbol id="Fm9-26-0" viewBox="2503.64 -2414.71 573.93 661.07">
 <path class="fil0" d="M3077.57 -2235.65l0 -179.06 -0.04 0 -573.89 0 0 179.06 17.86 0c7.24,-48.74 24.46,-86.38 51.78,-112.65 19.45,-18.97 50.82,-28.29 93.76,-28.29l46.31 0 0 509.8c0,33.26 -1.77,53.71 -5.3,61.38 -4.63,11.18 -11.08,19.02 -19.28,23.49 -11.24,6.83 -26.23,10.33 -44.72,10.33l-21.22 0 0 17.96 334.54 0 0 -17.96 -21.22 0c-18.18,0 -32.5,-3.17 -43.11,-9.66 -10.44,-6.32 -17.51,-13.66 -21.22,-22.13 -3.53,-8.52 -5.3,-29.64 -5.3,-63.41l0 -509.8 47.62 0c29.76,0 50.64,2.83 62.56,8.81 21.43,10.67 38.31,24.96 50.52,43.09 12.25,18 23.33,47.59 33.47,89.04l16.88 0z"/>
</symbol>
<symbol id="Fm2-19-0" viewBox="2853.93 -1082.08 226.59 340.37">
 <path class="fil0" d="M2854.52 -832.86l0 -249.2c58.23,-0.42 102.18,5.05 131.49,16.61 29.47,11.55 52.54,31.7 69.34,60.45 16.75,28.76 25.17,61.43 25.17,97.81 0,31.67 -6.85,60.42 -20.71,86.06 -13.68,25.79 -33.39,45.57 -59.2,59.06 -25.76,13.71 -53.89,20.36 -84.37,20.36 -20.71,0 -36.12,-5.26 -46.69,-15.64 -10.52,-10.58 -15.62,-26.22 -15.62,-46.75l0.59 -28.76z"/>
</symbol>
<symbol id="Fm14-18-0" viewBox="5270.71 -2414.71 660.52 676.29">
 <path class="fil0" d="M5812.53 -2004.7l-315.22 -410.01 0.04 0.09 -226.64 0 0 18.13c19.43,0.67 34.44,3.67 44.7,9.15 10.5,5.65 22.34,17.16 35.89,34.61l13.68 17.63 0 466.54c0,35.12 -6.93,59.91 -20.77,74.54 -13.83,14.63 -38.27,22.13 -73.5,22.47l0 17.96 226.64 0 0 -17.96 -15.13 0c-21.56,0 -40.86,-6.66 -57.58,-20.15 -16.89,-13.28 -25.27,-38.92 -25.27,-76.86l0 -420.3 432.01 550.45 16.09 0 0 -550.45c0,-31.11 2.54,-53.24 7.67,-66.06 5.22,-12.82 12.38,-22.13 21.76,-27.78 9.3,-5.69 27.31,-10.33 54.33,-13.83l0 -18.13 -211 0 0 18.13c35.52,-0.68 60.78,8.47 75.92,27.28 10.92,13.95 16.38,40.76 16.38,80.35l0 284.2z"/>
</symbol>
<symbol id="Fm1-13-0" viewBox="2582.42 -1668.43 3424.65 41.1">
 <polygon class="fil0" points="6007.06,-1668.43 2582.42,-1668.43 2582.42,-1627.32 6007.06,-1627.32 "/>
</symbol>
<symbol id="Fm11-15-0" viewBox="4065.75 -2054.95 0.04 0.04">
 <polygon class="fil0" points="4065.79,-2054.91 4065.79,-2054.95 4065.75,-2054.91 "/>
</symbol>
<symbol id="Fm0-12-0" viewBox="674.74 -2413.19 1703.82 1720.81">
 <path class="fil0" d="M2127.89 -1826.95l-590.15 -586.24 -0.04 0.09 -862.96 857.2 862.96 863.52 483.54 -485.43 -2.78 -1.1c-54.95,-6.36 -116.66,-34.03 -182.46,-63.53 -55.27,-24.78 -113.43,-50.85 -172.92,-66.7 -67.3,-15.31 -161.5,-17.74 -234.42,-19.62 -55.03,-1.43 -97.94,-2.53 -107.99,-8.62 360.95,-133.44 480.51,-84.11 603.92,-33.19 64.89,26.78 130.85,54 233.53,55.32l220.44 -221.31c-298.47,151.12 -392.89,108.09 -528.77,46.14 -109.21,-49.78 -245.21,-111.77 -535.44,-94.99 308.22,-143.34 463.3,-90.91 617.93,-38.63 119.9,40.53 239.52,80.97 430.03,29.98l-132.54 -131.66 -1.35 0.04c-181.21,69.55 -263.54,31.47 -373.53,-19.4 -109.72,-50.75 -246.96,-114.22 -537.34,-96.28 330.7,-151.9 495.83,-88.09 637.82,-33.21 57.97,22.41 112.09,43.32 172.05,47.46l0.47 0.16z"/>
</symbol>
<symbol id="Fm12-16-0" viewBox="3827.28 -2414.58 687.52 661.03">
 <path class="fil0" d="M4241.77 -2146.82c-12.38,21.63 -29.43,36.64 -51.16,44.95 -21.71,8.3 -54.38,12.31 -97.96,12.31l-26.86 0 0 -289.52 50.36 0c50.64,0 87.31,11.97 110.03,36.09 22.84,24.12 34.27,61.22 34.27,111.64 0,34.78 -6.3,62.9 -18.68,84.53zm228.18 358.66c-8.34,-7.17 -22.68,-25.13 -42.78,-54.09l-153.59 -223.79c38.94,-9.95 69.17,-25.09 90.89,-45.24 33.93,-31.91 50.99,-72.22 50.99,-120.95 0,-39.93 -11.43,-74.88 -33.94,-104.48 -22.64,-29.76 -51.95,-50.21 -87.68,-61.21 -35.85,-11.01 -92.26,-16.66 -169.65,-16.66l-296.91 0 0 18.13c29.27,0 49.22,2.66 59.83,8.31 10.78,5.48 18.19,12.81 22.53,22.13 4.16,9.32 6.27,31.75 6.27,67.54l0 428.94c0,35.75 -2.11,58.05 -6.27,67.2 -4.34,9.15 -11.74,16.49 -22.19,22.14 -10.61,5.81 -30.57,8.64 -60.17,8.64l0 17.96 327.13 0 0 -17.96c-29.26,0 -49.21,-2.87 -59.99,-8.35 -10.61,-5.48 -18.02,-12.98 -22.36,-22.3 -4.16,-9.15 -6.27,-31.62 -6.27,-67.37l0 -185.34 41.93 0 205.88 301.36 201.21 0 0 -17.96c-17.06,-1.01 -31.81,-6.49 -44.86,-16.65z"/>
</symbol>
<symbol id="Fm13-17-0" viewBox="4543.95 -2424.2 678.61 685.7">
 <path class="fil0" d="M5029.4 -1899.21c-15.42,45.74 -36.98,79.05 -64.49,99.84 -21.72,16.14 -48.74,24.28 -81.09,24.28 -48.12,0 -85.6,-18.81 -112.28,-56.58 -38.27,-53.92 -57.41,-137.27 -57.41,-250.1 0,-94.86 12.43,-167.71 37.15,-218.3 30.56,-61.72 74.96,-92.67 133.54,-92.67l0 0.04c31.64,0 59.62,8.99 83.92,26.77 24.47,17.97 44.44,48.57 60.16,92 15.8,43.26 23.69,108.65 23.69,196.17 0,73.4 -7.72,132.98 -23.19,178.55zm97.77 -432.61c-63.71,-65.26 -146.38,-96.04 -248.19,-92.03l0 0.04c-94.26,-4.01 -173.52,26.77 -238.22,92.33 -64.5,65.39 -96.81,147.22 -96.81,245.42 0,87.35 24.93,162.86 74.46,226.61 62.91,80.69 151.84,120.95 266.7,120.95 114.65,0 203.41,-42.24 266.33,-126.77 47.44,-63.75 71.12,-137.44 71.12,-221.3 0,-98.15 -31.85,-179.85 -95.39,-245.25z"/>
</symbol>
<symbol id="Fm10-14-0" viewBox="3135.13 -2414.75 657.63 676.71">
 <path class="fil0" d="M3464.91 -2414.7l-329.74 0 -0.04 0 0 18.13c27.03,-0.34 45.51,2.14 55.49,7.8 10.1,5.48 17.18,12.81 21.22,22.13 4.17,9.32 6.1,32.92 6.1,70.87l0 323.62c0,55.11 8.51,98.66 25.39,131.29 17.05,32.42 46.19,59.06 87.2,79.85 30.22,15.31 73.04,22.98 128.19,22.98 66.27,0 118.73,-14.46 157,-43.43 38.27,-28.96 62.4,-60.58 72.38,-95.03 9.81,-34.44 14.77,-90.52 14.77,-168.22l0 -251.1c0,-26.94 2.07,-45.58 6.11,-56.07 5.3,-14.97 13.97,-26.1 25.89,-33.61 11.92,-7.46 26.86,-11.12 44.71,-11.12l13.18 0 0 -18.14 -220.99 0 0 18.14c25.89,0 45.85,3.62 59.99,11.12 9.01,4.81 16.59,13.62 22.53,26.27 5.94,12.65 9.01,33.81 9.01,63.41l0 269.57c0,70.24 -6.11,119.48 -18.19,147.77 -12.08,28.29 -30.23,50.43 -54.69,66.57 -24.25,16.15 -53.72,24.12 -88.29,24.12 -30.23,0 -55.15,-6.32 -74.94,-18.97 -19.74,-12.82 -33.93,-28.63 -42.61,-47.77 -8.67,-19.27 -13,-58.39 -13,-117.63l0 -323.62c0,-37.61 2.1,-61.22 5.97,-70.7 3.88,-9.32 10.44,-16.82 19.79,-22.14 9.35,-5.31 26.4,-7.96 51.16,-7.96l16.41 0 0 -18.13z"/>
</symbol>
 <g id="Слой_x0020_1">
  <metadata id="CorelCorpID_0Corel-Layer"/>
  <g id="_2565676717760">
   <g>
    <polygon class="fil1" points="22.34,64.16 0,64.16 11.17,44.81 33.52,44.81 "/>
    <polygon class="fil1" points="44.69,64.16 67.03,64.16 55.86,44.81 33.52,44.81 "/>
    <polygon class="fil1" points="44.69,25.46 33.52,6.11 22.34,25.46 33.52,44.81 "/>
   </g>
   <g>
    <polygon class="fil2" points="77.66,52.38 90.47,52.38 90.47,47.73 77.66,47.73 77.66,42.02 92.07,42.02 92.07,37.37 72.24,37.37 72.24,64.16 92.45,64.16 92.45,59.52 77.66,59.52 "/>
    <polygon class="fil2" points="77.29,12.99 82.98,32.91 88.2,32.91 93.89,12.99 93.89,32.91 98.94,32.91 98.94,6.11 91.19,6.11 85.59,24.92 79.98,6.11 72.24,6.11 72.24,32.91 77.29,32.91 "/>
   </g>
   <polygon class="fil2" points="195.23,32.91 200.62,32.91 200.62,6.11 195.23,6.11 "/>
   <polygon class="fil2" points="199.62,64.16 205.02,64.16 205.02,37.37 199.62,37.37 "/>
   <polygon class="fil2" points="248.6,32.91 254,32.91 254,6.11 248.6,6.11 "/>
   <polygon class="fil2" points="101.09,32.91 106.49,32.91 106.49,6.11 101.09,6.11 "/>
   <polygon class="fil2" points="241.06,16.56 230.33,16.56 230.33,6.11 225.02,6.11 225.02,32.91 230.33,32.91 230.33,21.21 241.06,21.21 241.06,32.91 246.37,32.91 246.37,6.11 241.06,6.11 "/>
   <polygon class="fil2" points="114.47,32.91 119.98,32.91 119.98,10.76 126.53,10.76 126.53,6.11 107.92,6.11 107.92,10.76 114.47,10.76 "/>
   <polygon class="fil2" points="163.69,64.16 169.2,64.16 169.2,42.02 175.75,42.02 175.75,37.37 157.15,37.37 157.15,42.02 163.69,42.02 "/>
   <path class="fil2" d="M160.01 33.65c6.87,0 10.69,-3.13 10.69,-9.11l0 -18.43 -5.4 0 0 18.92c0,2.3 -1.94,4.23 -5.29,4.23 -4.06,0 -5.25,-2.27 -5.25,-4.23l0 -18.92 -5.31 0 0 18.43c0,6.44 4,9.11 10.56,9.11z"/>
   <polygon class="fil2" points="119.22,52.38 132.03,52.38 132.03,47.73 119.22,47.73 119.22,42.02 133.63,42.02 133.63,37.37 113.8,37.37 113.8,64.16 134.01,64.16 134.01,59.52 119.22,59.52 "/>
   <path class="fil2" d="M178.17 32.91l7.74 0c5.04,0 8.04,-3.02 8.04,-7.24 0,-3.41 -2.47,-6.33 -5.16,-7.01 2.35,-0.59 4.24,-3 4.24,-5.95 0,-3.95 -2.92,-6.6 -8.35,-6.6l-12.07 0 0 26.8 5.56 0zm6.12 -4.05l-6.33 0 0 -7.77 6.27 0c2.26,0 4.16,1.29 4.16,3.89 0,2.2 -1.73,3.88 -4.1,3.88zm0.4 -18.49c1.48,0 3.13,1.37 3.13,3.18 0,1.6 -1.16,3.37 -3.43,3.37l-6.43 0 0 -6.55 6.73 0z"/>
   <path class="fil2" d="M193.26 51.31c2.3,-0.7 4.76,-2.76 4.76,-6.48 0,-4.76 -3.23,-7.5 -8.72,-7.5l-12.23 0 0 26.8 5.43 0 0 -10.56 4.6 0c2.79,0 4.31,1.45 4.76,3.35 0.51,2.11 0.38,5.25 0.91,7.21l5.46 0c-0.53,-2.06 -0.84,-4.84 -0.96,-7.05 -0.2,-3.62 -2.1,-5.07 -4.01,-5.77zm-10.76 -2.04l0 -7.29 6.53 0c2.21,0 3.68,1.55 3.68,3.66 0,1.49 -1.31,3.63 -3.52,3.63l-6.69 0z"/>
   <polygon class="fil2" points="99.62,37.37 94.19,37.37 94.19,64.16 112.25,64.16 112.25,59.52 99.62,59.52 "/>
   <path class="fil2" d="M135.59 21.58c4.34,0.76 6.81,1.57 6.81,4.16 0,1.76 -1.73,3.42 -5.34,3.42 -3.61,0 -5.46,-2.05 -5.46,-4.48l-5.2 0c0,4.66 3.02,8.92 10.89,8.92 7.5,0 10.75,-3.97 10.75,-8.49 0,-4.23 -2.77,-6.91 -7.72,-7.88 -4.75,-0.93 -8.02,-1.14 -8.02,-4.15 0,-2.06 1.9,-3.29 4.81,-3.29 3.09,0 4.86,1.52 4.86,4.09l5.25 0c0,-4.23 -3.2,-8.58 -10.33,-8.58 -4.92,0 -10.01,2.84 -10.01,8.13 0,4.45 3.27,7.2 8.71,8.15z"/>
   <path class="fil2" d="M211.12 21.58c4.35,0.76 6.82,1.57 6.82,4.16 0,1.76 -1.74,3.42 -5.35,3.42 -3.61,0 -5.46,-2.05 -5.46,-4.48l-5.2 0c0,4.66 3.02,8.92 10.89,8.92 7.5,0 10.75,-3.97 10.75,-8.49 0,-4.23 -2.77,-6.91 -7.72,-7.88 -4.75,-0.93 -8.01,-1.14 -8.01,-4.15 0,-2.06 1.89,-3.29 4.8,-3.29 3.09,0 4.87,1.52 4.87,4.09l5.24 0c0,-4.23 -3.2,-8.58 -10.33,-8.58 -4.91,0 -10.01,2.84 -10.01,8.13 0,4.45 3.27,7.2 8.71,8.15z"/>
   <path class="fil2" d="M146.22 60.02c-4.36,0 -6.91,-4.27 -6.91,-9.36 0,-5.1 2.46,-9.37 6.91,-9.37 3.32,0 5.02,2.05 5.76,4.58l5.61 0c-0.92,-5.25 -5.02,-9.14 -11.52,-9.14 -8.2,0 -12.34,6.27 -12.34,14 0,7.74 4.31,14.01 12.34,14.01 6.42,0 10.76,-3.73 11.56,-9.46l-5.66 0c-0.73,2.7 -2.49,4.74 -5.75,4.74z"/>
   <path class="fil2" d="M218.83 60.02c-4.37,0 -6.92,-4.27 -6.92,-9.36 0,-5.1 2.46,-9.37 6.92,-9.37 3.31,0 5.01,2.05 5.75,4.58l5.61 0c-0.92,-5.25 -5.02,-9.14 -11.52,-9.14 -8.19,0 -12.34,6.27 -12.34,14 0,7.74 4.32,14.01 12.34,14.01 6.43,0 10.77,-3.73 11.56,-9.46l-5.65 0c-0.74,2.7 -2.5,4.74 -5.75,4.74z"/>
  </g>
 </g>
</svg>
