<svg width="279" height="87" viewBox="0 0 279 87" fill="none" xmlns="http://www.w3.org/2000/svg">
<path d="M16.8073 2.76758V78.1658H49.5892V18.6119L16.8073 2.76758ZM1.50916 38.281L32.1055 24.6219V85.2683H1.50916V38.281Z" stroke="#FFA12B" stroke-width="3"/>
<path d="M91.1408 31.2007L84.6223 44.0981V51.2168H80.1138V44.1819L73.7628 31.2007H78.9134L82.1377 38.6684C82.1936 38.808 82.3471 39.3523 82.5984 40.3015H82.6542C82.7752 39.6315 82.9194 39.1057 83.0869 38.7242L86.3671 31.2007H91.1408ZM108.868 51.2168H103.954L102.531 46.7641H95.412L94.0022 51.2168H89.1168L96.403 31.2007H101.749L108.868 51.2168ZM101.498 43.3025L99.3482 36.5746C99.19 36.0722 99.0783 35.4719 99.0132 34.774H98.9015C98.855 35.3603 98.7387 35.9419 98.5526 36.5188L96.3751 43.3025H101.498ZM129.372 51.2168H124.822L116.573 38.6405C116.089 37.9053 115.754 37.3517 115.568 36.9794H115.512C115.586 37.6867 115.623 38.7661 115.623 40.2177V51.2168H111.366V31.2007H116.224L124.166 43.3862C124.529 43.9353 124.864 44.4796 125.171 45.0194H125.227C125.152 44.5541 125.115 43.6375 125.115 42.2696V31.2007H129.372V51.2168ZM150.379 49.8768C148.425 51.0028 145.996 51.5658 143.093 51.5658C139.873 51.5658 137.333 50.6771 135.472 48.8997C133.62 47.1131 132.694 44.6564 132.694 41.5298C132.694 38.3846 133.709 35.8209 135.737 33.8388C137.766 31.8568 140.464 30.8657 143.833 30.8657C145.955 30.8657 147.825 31.1589 149.444 31.7451V35.9744C147.899 35.0811 146.01 34.6345 143.777 34.6345C141.907 34.6345 140.381 35.244 139.199 36.463C138.026 37.6727 137.44 39.2918 137.44 41.3204C137.44 43.3769 137.966 44.9682 139.017 46.0941C140.078 47.2201 141.507 47.7831 143.303 47.7831C144.382 47.7831 145.238 47.6295 145.871 47.3225V43.4142H141.865V39.8129H150.379V49.8768ZM158.782 51.2168H154.274V31.2007H158.782V51.2168ZM185.652 51.2168H169.53V48.6206L179.789 34.8717H170.27V31.2007H185.624V33.7272L175.588 47.5597H185.652V51.2168ZM206.212 51.2168H201.299L199.875 46.7641H192.756L191.347 51.2168H186.461L193.747 31.2007H199.093L206.212 51.2168ZM198.842 43.3025L196.693 36.5746C196.534 36.0722 196.423 35.4719 196.358 34.774H196.246C196.199 35.3603 196.083 35.9419 195.897 36.5188L193.72 43.3025H198.842ZM231.518 51.2168H227.066V39.2407C227.066 37.9472 227.122 36.5188 227.233 34.9555H227.122C226.889 36.1838 226.68 37.0678 226.493 37.6076L221.803 51.2168H218.118L213.345 37.7471C213.215 37.3842 213.005 36.4537 212.717 34.9555H212.591C212.712 36.9283 212.773 38.6591 212.773 40.1479V51.2168H208.711V31.2007H215.313L219.403 43.0652C219.728 44.0144 219.966 44.9682 220.115 45.9266H220.198C220.45 44.8193 220.715 43.8562 220.994 43.0373L225.084 31.2007H231.518V51.2168ZM244.527 51.5658C241.661 51.5658 239.326 50.6352 237.52 48.7741C235.715 46.9037 234.813 44.4703 234.813 41.474C234.813 38.3101 235.729 35.7511 237.562 33.797C239.395 31.8428 241.824 30.8657 244.848 30.8657C247.705 30.8657 250.013 31.8009 251.772 33.6713C253.54 35.5417 254.424 38.0077 254.424 41.0692C254.424 44.2144 253.507 46.7502 251.674 48.6764C249.85 50.6026 247.468 51.5658 244.527 51.5658ZM244.723 34.7461C243.141 34.7461 241.885 35.3417 240.954 36.5328C240.024 37.7146 239.558 39.2825 239.558 41.2367C239.558 43.2187 240.024 44.7867 240.954 45.9406C241.885 47.0945 243.104 47.6714 244.611 47.6714C246.165 47.6714 247.398 47.1131 248.31 45.9964C249.222 44.8705 249.678 43.3118 249.678 41.3204C249.678 39.2453 249.236 37.6308 248.352 36.4769C247.468 35.3231 246.258 34.7461 244.723 34.7461ZM275.766 51.2168H271.215L262.966 38.6405C262.482 37.9053 262.147 37.3517 261.961 36.9794H261.905C261.98 37.6867 262.017 38.7661 262.017 40.2177V51.2168H257.76V31.2007H262.617L270.559 43.3862C270.922 43.9353 271.257 44.4796 271.564 45.0194H271.62C271.546 44.5541 271.509 43.6375 271.509 42.2696V31.2007H275.766V51.2168Z" fill="black"/>
<path d="M75.5481 71.9531V58.3353H79.4227C80.6002 58.3353 81.534 58.6233 82.2241 59.1995C82.9142 59.7756 83.2592 60.5258 83.2592 61.4501C83.2592 62.2225 83.0503 62.8936 82.6325 63.4633C82.2146 64.0331 81.6385 64.4383 80.9041 64.6789V64.7169C81.8221 64.8245 82.5565 65.1727 83.1073 65.7615C83.6581 66.3439 83.9335 67.1036 83.9335 68.0406C83.9335 69.2055 83.5156 70.1488 82.6799 70.8705C81.8443 71.5923 80.7902 71.9531 79.5176 71.9531H75.5481ZM77.1435 59.7787V64.1756H78.7769C79.6506 64.1756 80.3375 63.9667 80.8376 63.5488C81.3378 63.1246 81.5879 62.5295 81.5879 61.7635C81.5879 60.4403 80.7173 59.7787 78.9763 59.7787H77.1435ZM77.1435 65.6095V70.5097H79.3087C80.2457 70.5097 80.9706 70.2881 81.4834 69.8449C82.0025 69.4018 82.2621 68.794 82.2621 68.0216C82.2621 66.4136 81.1668 65.6095 78.9763 65.6095H77.1435ZM88.2923 71.9531H86.6969V58.3353H88.2923V71.9531ZM102.86 71.9531H100.904L93.8952 61.0987C93.7179 60.8265 93.5723 60.5416 93.4584 60.2441H93.4014C93.452 60.5353 93.4773 61.1589 93.4773 62.1149V71.9531H91.882V58.3353H93.9522L100.771 69.0187C101.055 69.4619 101.239 69.7658 101.321 69.9304H101.359C101.296 69.5379 101.264 68.87 101.264 67.9267V58.3353H102.86V71.9531ZM111.919 72.181C109.988 72.181 108.441 71.5448 107.276 70.2723C106.117 68.9997 105.538 67.3442 105.538 65.3056C105.538 63.1151 106.13 61.3678 107.314 60.0636C108.497 58.7595 110.109 58.1074 112.147 58.1074C114.028 58.1074 115.541 58.7405 116.687 60.0067C117.839 61.2728 118.415 62.9284 118.415 64.9733C118.415 67.1954 117.826 68.9523 116.649 70.2438C115.471 71.5353 113.895 72.181 111.919 72.181ZM112.033 59.5508C110.603 59.5508 109.441 60.0668 108.548 61.0987C107.655 62.1307 107.209 63.4855 107.209 65.1632C107.209 66.8409 107.643 68.1925 108.51 69.2182C109.384 70.2374 110.52 70.7471 111.919 70.7471C113.413 70.7471 114.591 70.2596 115.452 69.2846C116.313 68.3097 116.744 66.9454 116.744 65.1917C116.744 63.3937 116.326 62.0041 115.49 61.0228C114.654 60.0415 113.502 59.5508 112.033 59.5508Z" fill="black"/>
</svg>
